<svg width="459" height="352" viewBox="0 0 459 352" fill="none" xmlns="http://www.w3.org/2000/svg">
<path d="M287.931 0L192.739 96.592L165.809 183.407L183.349 220.13L203.766 229.417L236.948 174.335L248.245 170.725L309.995 197.575L330.255 184.577L334.725 140.877L346.145 194.511L335.523 208.673L339.295 210.313L344.533 216.813L351.365 251.156L407.342 184.381L421.322 184.611L443.719 213.186L434.266 160.942L404.214 57.906L287.934 0H287.931ZM93.814 11.992L64.284 64.096L59.681 91.716L85.661 83.274L97.365 90.651L97.449 91.285L125.744 151.15L139.517 146.607L150.457 151.275L154.379 159.485L173.896 96.568L172.822 63.232L132.672 62.71L102.94 38.93L137 49.818L179.49 42.091L205.524 57.971L241.806 21.156C238.962 19.9429 236.102 18.7694 233.226 17.636L153.646 27.762L150.118 27.512L93.811 11.992H93.814ZM343.144 48.414L390.202 114.434L392.309 176.944L367.026 117.246L301.704 56.842L343.144 48.414ZM80.944 103.734L16.71 124.61L0 203.162L50.794 208.744L51.39 201.604L89.052 164.897L80.944 103.737V103.734ZM137.632 166.184L101.192 178.2L69.548 209.04L92.136 239.907L149.462 241.647L165.962 225.487L137.632 166.184ZM248.298 190.374L203.991 263.92L203.958 321.06L301.222 333.276L345.464 313.748L327.798 224.942L248.298 190.374ZM414.004 204.456L367.161 260.332L367.448 262.106L432.595 275.993L458.375 261.067L414.005 204.454L414.004 204.456ZM275.622 220.346L314.852 243.188L328.262 293.846L301.442 317.684L256.427 315.131L294.989 286.889L297.472 247.659L275.622 220.346ZM37.252 274.184L28.482 302.694L41.634 351.192L132.671 339.282L133.991 312.864L71.409 280.869L37.253 274.185L37.252 274.184Z" fill="white"/>
</svg>
