<svg width="474" height="473" viewBox="0 0 474 473" fill="none" xmlns="http://www.w3.org/2000/svg">
<path d="M238.344 0.00210609C233.006 -0.0145999 227.669 0.0680822 222.334 0.250107C178.402 1.74011 113.839 9.26411 66.264 34.7751C42.476 47.5321 23.07 64.5201 11.542 87.2441C1.63705 106.767 -2.67596 130.856 1.71504 161.364C81.301 97.1641 184.405 86.3771 275.291 99.2871C323.159 106.087 367.795 119.417 404.415 135.195C432.585 147.335 455.893 160.73 472.605 174.339C477.251 129.997 458.567 88.4431 420.195 56.4331C379.797 22.7291 317.299 0.261107 238.343 0.00310745L238.344 0.00210609ZM210.994 113.17C138.45 112.797 64.444 131.164 5.97904 182.03C21.419 205.377 78.333 220.232 147.145 227.207C151.645 215.919 156.702 205.084 162.26 194.847C146.578 199.935 128.445 201.203 111.217 200.07C98.149 199.21 85.61 196.814 74.937 192.79C64.262 188.764 55.005 183.293 49.905 174.133L66.248 165.038C67.832 167.882 73.152 172.16 81.528 175.318C89.908 178.478 100.898 180.654 112.436 181.413C133.571 182.803 156.532 178.86 169.446 171.11C160.046 165.957 152.326 159.277 147.904 150.35L164.654 142.07C167.334 147.476 174.438 153.447 185.124 157.975C189.07 159.648 193.451 161.122 198.134 162.372L255.912 165.658C274.092 163.156 290.622 157.356 300.748 148.598L312.968 162.724C305.335 169.324 296.183 174.328 286.148 177.961C288.34 179.271 290.948 180.554 293.968 181.691C302.345 184.851 313.335 187.027 324.873 187.786C347.951 189.304 373.213 184.466 385.187 175.256L396.593 190.066C378.016 204.361 349.791 208.161 323.655 206.442C310.588 205.584 298.048 203.187 287.375 199.162C285.225 198.352 283.145 197.472 281.132 196.522C280.659 208.097 280.483 219.682 280.604 231.266C367.564 228.266 445.5 214.394 462.979 190.666C448.289 178.343 425.279 164.534 397.019 152.356C361.961 137.251 318.759 124.336 272.662 117.786C252.495 114.922 231.804 113.276 210.994 113.168V113.17ZM192.988 180.8C147.322 246.147 125.971 357.785 155.44 439.89C159.966 452.5 170.552 461.044 185.385 466.355C200.218 471.668 218.862 473.169 236.355 471.275C253.845 469.38 270.191 463.995 280.248 457.153C285.278 453.733 288.638 450.041 290.321 446.686C292.001 443.333 292.388 440.406 291.191 436.348C268.223 358.528 258.423 264.704 263.167 184.793L192.987 180.801L192.988 180.8Z" fill="white"/>
</svg>
