<svg width="449" height="363" viewBox="0 0 449 363" fill="none" xmlns="http://www.w3.org/2000/svg">
<path d="M327.175 0L29.845 274.92H84.345L127.285 237.347L129.968 274.919H143.436L256.576 151.565C257.559 139.158 262.754 130.135 269.663 125.122C276.573 120.105 283.503 118.436 288.743 116.489L351.43 48.139L364.696 60.307L299.18 131.741L297.354 132.501C289.954 135.595 283.679 137.191 280.238 139.691C276.798 142.188 274.473 144.815 274.363 155.393L274.327 158.84L167.86 274.92H201.596L437.671 0H365.301L365.938 0.644005L172.27 191.832C171.022 200.534 165.617 207.528 159.657 212.267C152.769 217.744 144.867 221.449 138.001 225.157L129.446 209.322C136.798 205.35 143.923 201.782 148.454 198.179C152.986 194.576 154.621 192.169 154.556 187.926L154.498 184.083L340.967 0H327.175ZM427.018 40.25L209.93 293.06H191.703L143.993 343.035L130.973 330.605L166.819 293.06H113.077L111.79 275.01L91.16 293.06H73.12L0 362.95H29.778C42.038 348.948 48.196 338.122 57.001 328.28C66.071 318.14 78.111 310.114 98.989 304.39L103.749 321.75C85.047 326.876 77.659 332.183 70.417 340.28C65.359 345.933 60.385 353.52 53.075 362.95H176.853L448.283 40.25H427.018ZM96.543 329.162C98.1264 329.111 99.6954 329.478 101.091 330.228C102.487 330.977 103.66 332.082 104.493 333.43C105.325 334.778 105.786 336.322 105.831 337.905C105.875 339.489 105.5 341.056 104.745 342.449C103.017 345.745 100.805 349.939 96.712 353.631C92.618 357.323 86.707 359.988 79.642 360.691C78.4658 360.808 77.2781 360.692 76.1467 360.35C75.0154 360.008 73.9625 359.446 73.0481 358.697C72.1338 357.948 71.3759 357.026 70.8179 355.984C70.2598 354.942 69.9124 353.801 69.7955 352.625C69.6786 351.448 69.7946 350.261 70.1367 349.129C70.4788 347.998 71.0404 346.945 71.7895 346.031C72.5385 345.116 73.4603 344.358 74.5022 343.8C75.5442 343.242 76.6858 342.895 77.862 342.778C81.882 342.378 83.332 341.458 84.654 340.265C85.974 339.073 87.23 337.085 88.801 334.089C89.5306 332.649 90.6341 331.432 91.9958 330.565C93.3576 329.698 94.9275 329.213 96.541 329.161L96.543 329.162Z" fill="white"/>
</svg>
